<svg xmlns="http://www.w3.org/2000/svg" viewBox="0 0 256 256">
  <rect width="256" height="256" rx="24" fill="#1a1a2e"/>
  <!-- White keys -->
  <rect x="16" y="40" width="33" height="180" rx="3" fill="#f0f0f0" stroke="#999" stroke-width="1"/>
  <rect x="51" y="40" width="33" height="180" rx="3" fill="#f0f0f0" stroke="#999" stroke-width="1"/>
  <rect x="86" y="40" width="33" height="180" rx="3" fill="#f0f0f0" stroke="#999" stroke-width="1"/>
  <rect x="121" y="40" width="33" height="180" rx="3" fill="#f0f0f0" stroke="#999" stroke-width="1"/>
  <rect x="156" y="40" width="33" height="180" rx="3" fill="#f0f0f0" stroke="#999" stroke-width="1"/>
  <rect x="191" y="40" width="33" height="180" rx="3" fill="#f0f0f0" stroke="#999" stroke-width="1"/>
  <rect x="226" y="40" width="14" height="180" rx="3" fill="#f0f0f0" stroke="#999" stroke-width="1"/>
  <!-- Black keys -->
  <rect x="39" y="40" width="22" height="110" rx="3" fill="#1a1a2e" stroke="#000" stroke-width="1"/>
  <rect x="74" y="40" width="22" height="110" rx="3" fill="#1a1a2e" stroke="#000" stroke-width="1"/>
  <rect x="144" y="40" width="22" height="110" rx="3" fill="#1a1a2e" stroke="#000" stroke-width="1"/>
  <rect x="179" y="40" width="22" height="110" rx="3" fill="#1a1a2e" stroke="#000" stroke-width="1"/>
  <rect x="214" y="40" width="22" height="110" rx="3" fill="#1a1a2e" stroke="#000" stroke-width="1"/>
</svg>
